# xmcd CD database file
# Copyright (C) 1993-1998 Ti Kan
# 
# Track frame offsets:
#     187
#     15375
#     32887
#     56287
#     72862
#     90037
#     112087
#     131175
#     152587
#     168300
# 
# Disc length: 2434 seconds
# 
# Revision: 1
# Processed by: cddbd v1.4b41PL1 Copyright (c) Steve Scherf et al.
# Submitted via: DiscPlay 4.0.4
# 
DISCID=7409800a
DTITLE=Mississippi John Hurt - Worried Blues
DYEAR=1900
DGENRE=
TTITLE0=Lazy Blues
TTITLE1=Farther Along
TTITLE2=Sliding Delta
TTITLE3=Nobody Cares For Me
TTITLE4=Cow Hooking Blues No.2
TTITLE5=Talkin' Casey
TTITLE6=Weeping and Wailing
TTITLE7=Worried Blues
TTITLE8=Oh Mary Don't You Weep
TTITLE9=I Been Cryin' Since You Been Gone
EXTD=
EXTT0=
EXTT1=
EXTT2=
EXTT3=
EXTT4=
EXTT5=
EXTT6=
EXTT7=
EXTT8=
EXTT9=
PLAYORDER=
